<?xml version="1.0" encoding="iso-8859-1"?>
<!DOCTYPE svg PUBLIC "-//W3C//DTD SVG 1.1//EN" "http://www.w3.org/Graphics/SVG/1.1/DTD/svg11.dtd">
<svg version="1.1" id="Capa_1" xmlns="http://www.w3.org/2000/svg" xmlns:xlink="http://www.w3.org/1999/xlink" 
	 width="800px" height="800px" viewBox="0 0 294.386 294.386"
	 xml:space="preserve">
<g>
	<path style="fill:#F0F5F9;" d="M288.519,17.852H5.855C2.625,17.852,0,20.476,0,23.707v197.575c0,3.236,2.625,5.854,5.855,5.854
		H97.46l-30.646,39.98c-1.358,1.768-1.593,4.157-0.609,6.152c0.983,2.008,3.022,3.266,5.252,3.266h151.458
		c2.23,0,4.271-1.258,5.243-3.266c0.995-1.995,0.755-4.385-0.6-6.152l-30.644-39.98h91.614c3.236,0,5.855-2.618,5.855-5.854V23.707
		C294.375,20.476,291.761,17.852,288.519,17.852z M83.32,264.823l30.646-39.98l33.219-43.319l33.208,43.319l30.654,39.98H83.32z
		 M282.665,215.426H187.94l-36.101-47.1c-1.107-1.446-2.822-2.298-4.649-2.298c-1.827,0-3.536,0.852-4.648,2.298l-36.104,47.1H11.71
		V29.562h270.954V215.426z"/>
</g>
</svg>